<svg width="14" height="14" viewBox="0 0 14 14" fill="none" xmlns="http://www.w3.org/2000/svg">
<path d="M7.00537 0.663513C3.45024 0.663513 0.567383 3.59498 0.567383 7.21142C0.567383 10.1045 2.41206 12.559 4.97007 13.4248C5.29182 13.4854 5.40995 13.2828 5.40995 13.1098C5.40995 12.9537 5.40398 12.4379 5.40121 11.8907C3.61015 12.2868 3.23222 11.1181 3.23222 11.1181C2.93936 10.3613 2.51739 10.16 2.51739 10.16C1.93328 9.75361 2.56142 9.76196 2.56142 9.76196C3.20791 9.80805 3.54832 10.4367 3.54832 10.4367C4.12252 11.4378 5.0544 11.1484 5.42178 10.9811C5.47957 10.558 5.64641 10.2689 5.83053 10.1055C4.40056 9.9399 2.89735 9.37844 2.89735 6.86942C2.89735 6.15453 3.14885 5.5704 3.56068 5.11184C3.49384 4.94681 3.27348 4.28092 3.62305 3.37898C3.62305 3.37898 4.16367 3.203 5.39396 4.05018C5.9075 3.9051 6.45825 3.83234 7.00537 3.82985C7.5525 3.83234 8.10367 3.9051 8.61818 4.05018C9.84697 3.203 10.3868 3.37898 10.3868 3.37898C10.7373 4.28092 10.5168 4.94681 10.45 5.11184C10.8628 5.5704 11.1125 6.15453 11.1125 6.86942C11.1125 9.3844 9.60646 9.93816 8.17286 10.1003C8.40378 10.3035 8.60954 10.702 8.60954 11.3129C8.60954 12.1889 8.60208 12.894 8.60208 13.1098C8.60208 13.2841 8.71796 13.4882 9.0443 13.4239C11.6009 12.5571 13.4433 10.1035 13.4433 7.21142C13.4433 3.59498 10.5608 0.663513 7.00537 0.663513Z" fill="white"/>
<path d="M3.00689 10.0659C2.99271 10.0986 2.94239 10.1082 2.89655 10.0859C2.84985 10.0645 2.82363 10.0202 2.83877 9.98754C2.85263 9.95404 2.90305 9.94482 2.94964 9.96705C2.99644 9.98852 3.0231 10.0333 3.00689 10.0659Z" fill="white"/>
<path d="M3.26741 10.3617C3.2367 10.3907 3.17668 10.3772 3.13596 10.3315C3.09385 10.2858 3.08596 10.2248 3.11709 10.1954C3.14875 10.1664 3.20696 10.18 3.24918 10.2256C3.29129 10.2718 3.2995 10.3324 3.26741 10.3617Z" fill="white"/>
<path d="M3.52144 10.7388C3.48199 10.7667 3.4175 10.7406 3.37762 10.6823C3.33818 10.6241 3.33818 10.5543 3.37848 10.5263C3.41845 10.4983 3.48199 10.5235 3.5224 10.5813C3.56174 10.6404 3.56174 10.7103 3.52144 10.7388Z" fill="white"/>
<path d="M3.86884 11.1032C3.83355 11.1428 3.75839 11.1322 3.70338 11.0782C3.64709 11.0253 3.63141 10.9504 3.66681 10.9108C3.70252 10.8712 3.77811 10.8823 3.83355 10.9359C3.88941 10.9886 3.90647 11.0641 3.86884 11.1032Z" fill="white"/>
<path d="M4.3484 11.3147C4.33284 11.366 4.26045 11.3893 4.18753 11.3675C4.11471 11.3451 4.06706 11.285 4.08177 11.2332C4.09691 11.1816 4.16962 11.1573 4.24307 11.1806C4.31578 11.2029 4.36354 11.2626 4.3484 11.3147Z" fill="white"/>
<path d="M4.87529 11.354C4.8771 11.408 4.81527 11.4528 4.73872 11.4536C4.66175 11.4555 4.59949 11.4118 4.59863 11.3587C4.59863 11.3041 4.65908 11.2598 4.73605 11.2585C4.8126 11.2569 4.87529 11.3003 4.87529 11.354Z" fill="white"/>
<path d="M5.3658 11.2691C5.37497 11.3218 5.32177 11.3759 5.24576 11.3902C5.17102 11.4042 5.10183 11.3717 5.09234 11.3194C5.08307 11.2654 5.13723 11.2113 5.21185 11.1973C5.28797 11.1839 5.3561 11.2155 5.3658 11.2691Z" fill="white"/>
</svg>
