<svg width="51" height="52" viewBox="0 0 51 52" fill="none" xmlns="http://www.w3.org/2000/svg">
<path d="M25.7539 10.7147C30.5442 10.7147 33.7755 12.7818 35.6179 14.5092L42.8175 7.48663C38.3957 3.38072 32.6417 0.860535 25.7539 0.860535C15.7765 0.860535 7.15965 6.5805 2.9646 14.9056L11.213 21.3051C13.2821 15.1604 19.0078 10.7147 25.7539 10.7147V10.7147Z" fill="#EA4335"/>
<path d="M50.2438 26.9118C50.2438 24.8164 50.0737 23.2873 49.7052 21.7015H25.7538V31.1593H39.8129C39.5294 33.5096 37.9988 37.0492 34.5974 39.4278L42.6473 45.6574C47.466 41.2117 50.2438 34.6706 50.2438 26.9118V26.9118Z" fill="#4285F4"/>
<path d="M11.2416 31.386C10.703 29.8003 10.3912 28.1013 10.3912 26.3457C10.3912 24.5901 10.703 22.8911 11.2132 21.3053L2.96488 14.9058C1.23585 18.3604 0.243774 22.2398 0.243774 26.3457C0.243774 30.4516 1.23585 34.331 2.96488 37.7856L11.2416 31.386V31.386Z" fill="#FBBC05"/>
<path d="M25.7538 51.8306C32.6416 51.8306 38.4239 49.5653 42.6473 45.6576L34.5974 39.4279C32.4432 40.9287 29.552 41.9764 25.7538 41.9764C19.0077 41.9764 13.282 37.5307 11.2412 31.386L2.9928 37.7855C7.18784 46.1106 15.7763 51.8306 25.7538 51.8306V51.8306Z" fill="#34A853"/>
</svg>
