<svg width="34" height="32" viewBox="0 0 34 32" fill="none" xmlns="http://www.w3.org/2000/svg">
<path d="M0.611084 16.4537C0.611084 7.86771 7.87402 0.907394 16.8333 0.907394C25.7926 0.907394 33.0555 7.86771 33.0555 16.4537C33.0555 25.0397 25.7926 32 16.8333 32C7.87402 32 0.611084 25.0397 0.611084 16.4537Z" fill="#0077B5"/>
<path fill-rule="evenodd" clip-rule="evenodd" d="M12.3172 10.509C12.3172 11.5254 11.5189 12.3387 10.237 12.3387H10.2135C8.9793 12.3387 8.1814 11.5254 8.1814 10.509C8.1814 9.47107 9.0036 8.68054 10.2612 8.68054C11.5189 8.68054 12.2934 9.47107 12.3172 10.509ZM12.075 13.7835V24.369H8.39873V13.7835H12.075ZM25.3331 24.369L25.3332 18.2996C25.3332 15.0482 23.5196 13.5349 21.1004 13.5349C19.1485 13.5349 18.2746 14.5624 17.7867 15.2831V13.7838H14.1099C14.1584 14.7771 14.1099 24.3693 14.1099 24.3693H17.7867V18.4575C17.7867 18.1411 17.8105 17.8255 17.9078 17.599C18.1734 16.967 18.7784 16.3126 19.7941 16.3126C21.1249 16.3126 21.6569 17.2833 21.6569 18.7058V24.369H25.3331Z" fill="white"/>
</svg>
