<svg width="14" height="14" viewBox="0 0 14 14" fill="none" xmlns="http://www.w3.org/2000/svg">
<path fill-rule="evenodd" clip-rule="evenodd" d="M6.89603 0.56897C3.3334 0.56897 0.445312 3.45673 0.445312 7.01897C0.445312 10.5812 3.3334 13.469 6.89603 13.469C10.4587 13.469 13.3467 10.5812 13.3467 7.01897C13.3467 3.45673 10.4587 0.56897 6.89603 0.56897ZM3.54199 5.91113H5.00387V10.303H3.54199V5.91113ZM5.10066 4.55256C5.09117 4.12194 4.7832 3.79396 4.2831 3.79396C3.783 3.79396 3.45605 4.12194 3.45605 4.55256C3.45605 4.97425 3.77334 5.31168 4.26412 5.31168H4.27347C4.7832 5.31168 5.10066 4.97425 5.10066 4.55256ZM8.59272 5.80799C9.5547 5.80799 10.2759 6.43583 10.2759 7.78481L10.2758 10.303H8.81401V7.95332C8.81401 7.36314 8.60247 6.96042 8.07327 6.96042C7.66939 6.96042 7.42883 7.23191 7.32318 7.49414C7.28453 7.58811 7.27504 7.71905 7.27504 7.85031V10.3031H5.81299C5.81299 10.3031 5.83226 6.32334 5.81299 5.91124H7.27504V6.5333C7.46906 6.23426 7.81656 5.80799 8.59272 5.80799Z" fill="white"/>
</svg>
