<svg width="50" height="50" viewBox="0 0 50 50" fill="none" xmlns="http://www.w3.org/2000/svg">
<path d="M0 25C0 11.1929 11.1929 0 25 0C38.8071 0 50 11.1929 50 25C50 38.8071 38.8071 50 25 50C11.1929 50 0 38.8071 0 25Z" fill="#0077B5"/>
<path fill-rule="evenodd" clip-rule="evenodd" d="M18.0405 15.4406C18.0405 17.075 16.8101 18.3829 14.8347 18.3829H14.7984C12.8964 18.3829 11.6667 17.075 11.6667 15.4406C11.6667 13.7715 12.9338 12.5002 14.872 12.5002C16.8101 12.5002 18.0037 13.7715 18.0405 15.4406ZM17.6674 20.7063V37.7289H12.0019V20.7063H17.6674ZM38.099 37.729L38.0993 27.9687C38.0993 22.7401 35.3043 20.3066 31.5761 20.3066C28.568 20.3066 27.2213 21.9589 26.4693 23.1179V20.7068H20.8031C20.8778 22.3041 20.8031 37.7294 20.8031 37.7294H26.4693V28.2226C26.4693 27.7138 26.5061 27.2063 26.6559 26.8421C27.0654 25.8257 27.9977 24.7734 29.5629 24.7734C31.6139 24.7734 32.4337 26.3344 32.4337 28.6219V37.729H38.099Z" fill="white"/>
</svg>
