<svg width="29" height="41" viewBox="0 0 29 41" fill="none" xmlns="http://www.w3.org/2000/svg">
<path fill-rule="evenodd" clip-rule="evenodd" d="M14.2998 0.571411C6.5598 0.571411 0.299805 6.83141 0.299805 14.5714C0.299805 25.0714 14.2998 40.5714 14.2998 40.5714C14.2998 40.5714 28.2998 25.0714 28.2998 14.5714C28.2998 6.83141 22.0398 0.571411 14.2998 0.571411ZM4.29946 14.5714C4.29946 9.05139 8.77946 4.57139 14.2995 4.57139C19.8195 4.57139 24.2995 9.05139 24.2995 14.5714C24.2995 20.3314 18.5395 28.9514 14.2995 34.3314C10.1395 28.9914 4.29946 20.2714 4.29946 14.5714ZM9.29931 14.5714C9.29931 11.81 11.5379 9.57139 14.2993 9.57139C16.0856 9.57139 17.7363 10.5244 18.6294 12.0714C19.5226 13.6184 19.5226 15.5244 18.6294 17.0714C17.7363 18.6184 16.0856 19.5714 14.2993 19.5714C11.5379 19.5714 9.29931 17.3328 9.29931 14.5714Z" fill="#777777"/>
</svg>
