<svg width="58" height="58" viewBox="0 0 58 58" fill="none" xmlns="http://www.w3.org/2000/svg">
<g filter="url(#filter0_d)">
<path d="M4 25C4 11.1929 15.1929 0 29 0C42.8071 0 54 11.1929 54 25C54 38.8071 42.8071 50 29 50C15.1929 50 4 38.8071 4 25Z" fill="#55ACEE"/>
<path d="M28.2515 20.3204L28.304 21.1855L27.4296 21.0796C24.247 20.6735 21.4665 19.2965 19.1058 16.9838L17.9517 15.8363L17.6544 16.6837C17.0249 18.5727 17.4271 20.5676 18.7386 21.9093C19.4381 22.6508 19.2807 22.7567 18.0741 22.3154C17.6544 22.1741 17.2872 22.0682 17.2522 22.1212C17.1298 22.2447 17.5495 23.8513 17.8817 24.4868C18.3364 25.3695 19.2632 26.2346 20.2774 26.7466L21.1343 27.1526L20.12 27.1703C19.1408 27.1703 19.1058 27.1879 19.2107 27.5587C19.5605 28.7062 20.9419 29.9243 22.4808 30.454L23.565 30.8247L22.6207 31.3896C21.2217 32.2017 19.578 32.6607 17.9342 32.696C17.1473 32.7137 16.5002 32.7843 16.5002 32.8373C16.5002 33.0138 18.6337 34.0024 19.8752 34.3908C23.6 35.5384 28.0242 35.044 31.3467 33.0844C33.7074 31.6897 36.0682 28.918 37.1699 26.2346C37.7644 24.8046 38.359 22.1918 38.359 20.9383C38.359 20.1262 38.4114 20.0203 39.3907 19.0493C39.9678 18.4844 40.5099 17.8665 40.6148 17.69C40.7897 17.3545 40.7722 17.3545 39.8803 17.6546C38.3939 18.1843 38.1841 18.1137 38.9186 17.3192C39.4607 16.7543 40.1077 15.7303 40.1077 15.4302C40.1077 15.3773 39.8454 15.4655 39.5481 15.6244C39.2333 15.801 38.5338 16.0658 38.0092 16.2247L37.0649 16.5248L36.2081 15.9422C35.7359 15.6244 35.0714 15.2713 34.7217 15.1654C33.8298 14.9182 32.4659 14.9536 31.6615 15.236C29.4756 16.0305 28.0941 18.0783 28.2515 20.3204Z" fill="white"/>
</g>
<defs>
<filter id="filter0_d" x="0" y="0" width="58" height="58" filterUnits="userSpaceOnUse" color-interpolation-filters="sRGB">
<feFlood flood-opacity="0" result="BackgroundImageFix"/>
<feColorMatrix in="SourceAlpha" type="matrix" values="0 0 0 0 0 0 0 0 0 0 0 0 0 0 0 0 0 0 127 0"/>
<feOffset dy="4"/>
<feGaussianBlur stdDeviation="2"/>
<feColorMatrix type="matrix" values="0 0 0 0 0 0 0 0 0 0 0 0 0 0 0 0 0 0 0.25 0"/>
<feBlend mode="normal" in2="BackgroundImageFix" result="effect1_dropShadow"/>
<feBlend mode="normal" in="SourceGraphic" in2="effect1_dropShadow" result="shape"/>
</filter>
</defs>
</svg>
