<svg width="33" height="32" viewBox="0 0 33 32" fill="none" xmlns="http://www.w3.org/2000/svg">
<path d="M0.407349 16.4537C0.407349 7.86771 7.67028 0.907394 16.6296 0.907394C25.5888 0.907394 32.8518 7.86771 32.8518 16.4537C32.8518 25.0397 25.5888 32 16.6296 32C7.67028 32 0.407349 25.0397 0.407349 16.4537Z" fill="#55ACEE"/>
<path d="M16.1437 13.5436L16.1777 14.0816L15.6104 14.0157C13.5452 13.7632 11.741 12.9069 10.2092 11.4687L9.46024 10.7551L9.26734 11.2821C8.85885 12.4568 9.11983 13.6973 9.97086 14.5317C10.4247 14.9927 10.3226 15.0586 9.53967 14.7842C9.26734 14.6963 9.02905 14.6305 9.00636 14.6634C8.92693 14.7402 9.19926 15.7393 9.41485 16.1345C9.70988 16.6834 10.3113 17.2213 10.9694 17.5397L11.5254 17.7922L10.8673 17.8032C10.2318 17.8032 10.2092 17.8142 10.2772 18.0447C10.5042 18.7583 11.4006 19.5158 12.3991 19.8452L13.1027 20.0757L12.4899 20.427C11.5822 20.932 10.5155 21.2174 9.4489 21.2394C8.93828 21.2504 8.51843 21.2943 8.51843 21.3272C8.51843 21.437 9.90278 22.0518 10.7084 22.2933C13.1254 23.0069 15.9962 22.6995 18.1521 21.4809C19.684 20.6136 21.2158 18.89 21.9307 17.2213C22.3165 16.3321 22.7023 14.7073 22.7023 13.9279C22.7023 13.4229 22.7364 13.357 23.3718 12.7532C23.7462 12.4019 24.098 12.0176 24.1661 11.9078C24.2796 11.6993 24.2682 11.6993 23.6895 11.8859C22.725 12.2152 22.5888 12.1713 23.0654 11.6773C23.4172 11.326 23.837 10.6893 23.837 10.5026C23.837 10.4697 23.6668 10.5246 23.4739 10.6234C23.2697 10.7332 22.8158 10.8978 22.4754 10.9966L21.8626 11.1833L21.3066 10.821C21.0002 10.6234 20.5691 10.4038 20.3421 10.338C19.7634 10.1843 18.8783 10.2062 18.3564 10.3819C16.938 10.8759 16.0416 12.1494 16.1437 13.5436Z" fill="white"/>
</svg>
