<svg width="33" height="32" viewBox="0 0 33 32" fill="none" xmlns="http://www.w3.org/2000/svg">
<path d="M0 16.4537C0 7.86771 7.26293 0.907394 16.2222 0.907394C25.1815 0.907394 32.4444 7.86771 32.4444 16.4537C32.4444 25.0397 25.1815 32 16.2222 32C7.26293 32 0 25.0397 0 16.4537Z" fill="#FF0000"/>
<path d="M24.5126 12.6145C24.3137 11.8819 23.7273 11.305 22.9827 11.1092C21.6334 10.7534 16.2224 10.7534 16.2224 10.7534C16.2224 10.7534 10.8114 10.7534 9.46197 11.1092C8.71742 11.305 8.13106 11.8819 7.93207 12.6145C7.57056 13.9423 7.57056 16.7128 7.57056 16.7128C7.57056 16.7128 7.57056 19.4832 7.93207 20.811C8.13106 21.5437 8.71742 22.1206 9.46197 22.3165C10.8114 22.6722 16.2224 22.6722 16.2224 22.6722C16.2224 22.6722 21.6334 22.6722 22.9827 22.3165C23.7273 22.1206 24.3137 21.5437 24.5126 20.811C24.8743 19.4832 24.8743 16.7128 24.8743 16.7128C24.8743 16.7128 24.8743 13.9423 24.5126 12.6145Z" fill="white"/>
<path d="M14.6001 19.5629V14.3808L18.926 16.972L14.6001 19.5629Z" fill="#FF0000"/>
</svg>
