<svg width="34" height="31" viewBox="0 0 34 31" fill="none" xmlns="http://www.w3.org/2000/svg">
<ellipse cx="17.0369" cy="15.6316" rx="16.2222" ry="15.3684" fill="url(#paint0_linear)"/>
<path d="M22.3746 9.48422H12.5102C11.3965 9.48422 10.548 10.2881 10.548 11.3432V20.6884C10.548 21.7435 11.3965 22.5474 12.5102 22.5474H22.3746C23.4883 22.5474 24.3369 21.7435 24.3369 20.6884V11.3432C24.3369 10.2881 23.4883 9.48422 22.3746 9.48422ZM17.4424 19.9347C19.7229 19.9347 21.5791 18.2265 21.5791 16.1665C21.5791 15.8148 21.526 15.4129 21.42 15.1114H22.5867V20.4372C22.5867 20.6884 22.3746 20.9396 22.0564 20.9396H12.8284C12.5633 20.9396 12.2981 20.7386 12.2981 20.4372V15.0612H13.5179C13.4118 15.4129 13.3588 15.7646 13.3588 16.1163C13.3058 18.2265 15.1619 19.9347 17.4424 19.9347ZM17.4424 18.4275C15.9575 18.4275 14.7907 17.3221 14.7907 15.9656C14.7907 14.609 15.9575 13.5037 17.4424 13.5037C18.9274 13.5037 20.0941 14.609 20.0941 15.9656C20.0941 17.3724 18.9274 18.4275 17.4424 18.4275ZM22.5337 13.0515C22.5337 13.3529 22.2685 13.6041 21.9503 13.6041H20.4654C20.1472 13.6041 19.882 13.3529 19.882 13.0515V11.6949C19.882 11.3935 20.1472 11.1422 20.4654 11.1422H21.9503C22.2685 11.1422 22.5337 11.3935 22.5337 11.6949V13.0515Z" fill="white"/>
<defs>
<linearGradient id="paint0_linear" x1="7.70914" y1="27.5421" x2="28.002" y2="5.31359" gradientUnits="userSpaceOnUse">
<stop stop-color="#EEA054"/>
<stop offset="0.502762" stop-color="#D64763"/>
<stop offset="1" stop-color="#B62A99"/>
</linearGradient>
</defs>
</svg>
